# AST/ASF file generated using VICON BodyLanguage
# -----------------------------------------------
:version 1.10
:name VICON
:units
  mass 1.0
  length 0.45
  angle deg
:documentation
   .ast/.asf automatically generated from VICON data using
   VICON BodyBuilder and BodyLanguage model FoxedUp or BRILLIANT.MOD
:root
   order TX TY TZ RX RY RZ
   axis XYZ
   position 0 0 0  
   orientation 0 0 0 
:bonedata
  begin
     id 1 
     name lhipjoint
     direction 0.624716 -0.669793 0.401383 
     length 2.38238 
     axis 0 0 0  XYZ
  end
  begin
     id 2 
     name lfemur
     direction 0.34202 -0.939693 0  
     length 6.4574  
     axis 0 0 20  XYZ
    dof rx ry rz
    limits (-160.0 20.0)
           (-70.0 70.0)
           (-60.0 70.0)
  end
  begin
     id 3 
     name ltibia
     direction 0.34202 -0.939693 0   
     length 7.68739   
     axis 0 0 20   XYZ
    dof rx
    limits (-10.0 170.0)
  end
  begin
     id 4 
     name lfoot
     direction 0.0681309 -0.187188 0.979959   
     length 2.46615   
     axis -90 7.62852e-016 20   XYZ
    dof rx rz
    limits (-45.0 90.0)
           (-70.0 20.0)
  end
  begin
     id 5 
     name ltoes
     direction 1.53566e-011 -4.21819e-011 1   
     length 1.2376   
     axis -90 7.62852e-016 20   XYZ
    dof rx
    limits (-90.0 20.0)
  end
  begin
     id 6 
     name rhipjoint
     direction -0.644473 -0.655875 0.393043   
     length 2.43293  
     axis 0 0 0  XYZ 
  end
  begin
     id 7 
     name rfemur
     direction -0.34202 -0.939693 0   
     length 6.7025   
     axis 0 0 -20   XYZ
    dof rx ry rz
    limits (-160.0 20.0)
           (-70.0 70.0)
           (-70.0 60.0)
  end
  begin
     id 8 
     name rtibia
     direction -0.34202 -0.939693 0   
     length 7.80547   
     axis 0 0 -20   XYZ
    dof rx
    limits (-10.0 170.0)
 end
 begin
     id 9 
     name rfoot
     direction -0.0756734 -0.207911 0.975216   
     length 2.40315  
     axis -90 -7.62852e-016 -20   XYZ
    dof rx rz
    limits (-45.0 90.0)
           (-20.0 70.0)
  end
  begin
     id 10 
     name rtoes
     direction -1.5353e-011 -4.21879e-011 1   
     length 1.20477   
     axis -90 -7.62852e-016 -20   XYZ
    dof rx
    limits (-90.0 20.0)
  end
  begin
     id 11 
     name lowerback
     direction 0.0160353 0.987463 -0.157037   
     length 2.18572   
     axis 0 0 0   XYZ
    dof rx ry rz
    limits (-20.0 45.0)
           (-30.0 30.0)
           (-30.0 30.0)
  end
  begin
     id 12 
     name upperback
     direction -0.00499661 0.999756 0.0215076   
     length 2.18016   
     axis 0 0 0   XYZ
    dof rx ry rz
    limits (-20.0 45.0)
           (-30.0 30.0)
           (-30.0 30.0)
  end
  begin
     id 13 
     name thorax
     direction -0.00921346 0.995333 0.0960619   
     length 2.24923   
     axis 0 0 0   XYZ
    dof rx ry rz
    limits (-20.0 45.0)
           (-30.0 30.0)
           (-30.0 30.0)
  end
  begin
     id 14 
     name lowerneck
     direction 0.0274184 0.991181 0.12965   
     length 1.70911   
     axis 0 0 0   XYZ
    dof rx ry rz
    limits (-20.0 45.0)
           (-30.0 30.0)
           (-30.0 30.0)
  end
  begin
     id 15 
     name upperneck
     direction 0.0015627 0.999959 -0.00893559   
     length 1.69312   
     axis 0 0 0   XYZ
    dof rx ry rz
    limits (-20.0 45.0)
           (-30.0 30.0)
           (-30.0 30.0)
  end
  begin
     id 16
     name head
     direction -0.00230242 0.999856 -0.0168327  
     length 1.80241  
     axis 0 0 0   XYZ
    dof rx ry rz
    limits (-20.0 45.0)
           (-30.0 30.0)
           (-30.0 30.0)
  end
  begin
     id 17 
     name lclavicle
     direction 0.955523 0.290741 -0.0494489  
     length 3.84275  
     axis 0 0 0   XYZ
    dof ry rz
    limits (-20.0 10.0)
           (0.0 20.0)
  end
  begin
     id 18 
     name lhumerus
     direction 1 -4.48967e-011 -3.18382e-028   
     length 5.17714   
     axis 180 -30 -90   XYZ
    dof rx ry rz
    limits (-60.0 90.0)
           (-90.0 90.0)
           (-90.0 90.0)
  end
  begin
     id 19
     name lradius
     direction 1 -4.48968e-011 -2.22911e-027   
     length 3.43679   
     axis 180 -30 -90   XYZ
    dof rx
    limits (-10.0 170.0)
  end
  begin
     id 20
     name lwrist
     direction 1 -4.48951e-011 -6.32245e-027   
     length 1.7184   
     axis 3.57107e-015 90 90   XYZ
    dof ry
    limits (-180.0 0.0)
 end
  begin
     id 21 
     name lhand
     direction 1 -4.48924e-011 -1.26431e-026   
     length 0.573117   
     axis 8.06912e-015 90 90   XYZ
    dof rx rz
    limits (-90.0 90.0)
           (-45.0 45.0)
  end
  begin
     id 22 
     name lfingers
     direction 1 -4.49001e-011 -2.52965e-026   
     length 0.462062   
     axis 1.61381e-014 90 90   XYZ
    dof rx
    limits (0.0 90.0)
  end
  begin
     id 23
     name lthumb
     direction 0.707107 -6.35008e-011 0.707107   
     length 0.663431   
     axis -90 45 -1.62303e-014   XYZ
    dof rx rz
    limits (-45.0 45.0)
           (-45.0 45.0)
  end
  begin
     id 24 
     name rclavicle
     direction -0.963917 0.256881 -0.0698287   
     length 3.73057  
     axis 0 0 0   XYZ 
    dof ry rz
    limits (-10.0 20.0)
           (-20.0 0.0)
  end
  begin
     id 25 
     name rhumerus
     direction -1 -4.48962e-011 -2.73982e-027  
     length 5.23908   
     axis 180 30 90   XYZ
    dof rx ry rz
    limits (-90.0 60.0)
           (-90.0 90.0)
           (-90.0 90.0)
  end
  begin
     id 26 
     name rradius
     direction -1 -4.48968e-011 -4.33218e-027   
     length 3.46485   
     axis 180 30 90   XYZ
    dof rx
    limits (-10.0 170.0)
  end
  begin
     id 27 
     name rwrist
     direction -1 -4.48989e-011 -6.32372e-027   
     length 1.73243   
     axis 3.57107e-015 -90 -90   XYZ
    dof ry
    limits (-180.0 0.0)
  end
  begin
     id 28
     name rhand
     direction -1 -4.48948e-011 -1.26448e-026   
     length 0.608752   
     axis 8.06912e-015 -90 -90   XYZ
    dof rx rz
    limits (-90.0 90.0)
           (-45.0 45.0)
  end
  begin
     id 29
     name rfingers
     direction -1 -4.48962e-011 -2.52913e-026   
     length 0.490792   
     axis 1.61381e-014 -90 -90   XYZ
    dof rx
    limits (0.0 90.0)
  end
  begin
     id 30
     name rthumb
     direction -0.707107 -6.34878e-011 0.707107   
     length 0.704682   
     axis -90 -45 1.62303e-014   XYZ
    dof rx rz
    limits (-45.0 45.0)
           (-45.0 45.0)
  end
:hierarchy
  begin
    root lhipjoint rhipjoint lowerback
    lhipjoint lfemur
    lfemur ltibia
    ltibia lfoot
    lfoot ltoes
    rhipjoint rfemur
    rfemur rtibia
    rtibia rfoot
    rfoot rtoes
    lowerback upperback
    upperback thorax
    thorax lowerneck lclavicle rclavicle
    lowerneck upperneck
    upperneck head
    lclavicle lhumerus
    lhumerus lradius
    lradius lwrist
    lwrist lhand lthumb
    lhand lfingers
    rclavicle rhumerus
    rhumerus rradius
    rradius rwrist
    rwrist rhand rthumb
    rhand rfingers
  end

#!OML:ASF G:\JayActor3\Patient Classification 1\Patient 1\Session 6\male.ASF
:FULLY-SPECIFIED
:DEGREES
150
root 4.26001 15.6765 -17.7699 15.6676 -33.8794 -6.05875
lowerback 15.8665 -1.09823 2.77165
upperback 5.62393 -1.05045 2.05173
thorax -2.92351 -0.56516 0.779167
lowerneck 21.8232 -1.49575 -0.451943
upperneck -18.2162 -1.08822 4.98448
head -9.30745 -1.07346 1.96162
rclavicle -8.17999e-014 3.0911e-014
rhumerus -35.971 3.60632 -86.4372
rradius 52.8539
rwrist -5.50949
rhand -20.1832 -4.55931
rfingers 7.12502
rthumb 6.16292 -34.4497
lclavicle -8.17999e-014 3.0911e-014
lhumerus -39.6287 -14.5202 88.311
lradius 57.016
lwrist 30.3696
lhand -20.8651 5.91421
lfingers 7.12502
lthumb 5.50455 35.8227
rfemur -43.2415 -2.40715 28.4614
rtibia 55.5942
rfoot -23.1684 -9.21777
rtoes 2.08664
lfemur -41.938 17.2002 -21.7386
ltibia 52.1022
lfoot -22.1472 0.0506308
ltoes -2.08393
151
root 4.264 15.6734 -17.7691 15.7487 -33.8964 -6.09214
lowerback 15.9362 -1.10257 2.78602
upperback 5.61234 -1.0502 2.06316
thorax -2.97273 -0.56551 0.784694
lowerneck 21.8377 -1.49504 -0.453945
upperneck -18.2236 -1.09114 4.9682
head -9.31252 -1.07296 1.95705
rclavicle -9.94917e-014 3.98563e-014
rhumerus -35.9989 3.60271 -86.4617
rradius 52.6504
rwrist -5.5052
rhand -20.1752 -4.56995
rfingers 7.12502
rthumb 6.17066 -34.4601
lclavicle -9.94917e-014 3.98563e-014
lhumerus -39.7365 -14.4729 88.3751
lradius 56.9806
lwrist 30.4157
lhand -20.8147 5.89835
lfingers 7.12502
lthumb 5.55321 35.8056
rfemur -43.3529 -2.37301 28.4748
rtibia 55.6489
rfoot -23.1535 -9.22647
rtoes 2.03497
lfemur -42.0672 17.1855 -21.7527
ltibia 52.1854
lfoot -22.1703 0.117245
ltoes -2.09945
152
root 4.26792 15.6703 -17.7684 15.8373 -33.9065 -6.13601
lowerback 16.0024 -1.10871 2.8181
upperback 5.59829 -1.04966 2.07303
thorax -3.02295 -0.565588 0.778511
lowerneck 21.844 -1.49712 -0.448794
upperneck -18.2372 -1.09539 4.95268
head -9.31836 -1.0737 1.95176
rclavicle 9.44227e-015 3.71727e-014
rhumerus -36.0352 3.59162 -86.4924
rradius 52.4643
rwrist -5.50694
rhand -20.1675 -4.57732
rfingers 7.12502
rthumb 6.17807 -34.4672
lclavicle 9.44227e-015 3.71727e-014
lhumerus -39.8356 -14.4315 88.4353
lradius 56.9453
lwrist 30.454
lhand -20.7488 5.88803
lfingers 7.12502
lthumb 5.61692 35.7936
rfemur -43.4633 -2.3449 28.4995
rtibia 55.6974
rfoot -23.132 -9.23633
rtoes 1.961
lfemur -42.1947 17.1556 -21.7546
ltibia 52.2647
lfoot -22.1999 0.202782
ltoes -2.13677
153
root 4.2718 15.6675 -17.7676 15.9322 -33.9121 -6.1864
lowerback 16.064 -1.11464 2.86433
upperback 5.58153 -1.04675 2.08055
thorax -3.0738 -0.564398 0.761383
lowerneck 21.8444 -1.50413 -0.437937
upperneck -18.2546 -1.1044 4.93795
head -9.32437 -1.07718 1.94647
rclavicle -8.74653e-015 -2.32578e-014
rhumerus -36.083 3.5684 -86.5254
rradius 52.2998
rwrist -5.51669
rhand -20.1535 -4.57596
rfingers 7.12502
rthumb 6.19166 -34.4655
lclavicle -8.74653e-015 -2.32578e-014
lhumerus -39.9279 -14.3978 88.4936
lradius 56.9114
lwrist 30.4775
lhand -20.691 5.88672
lfingers 7.12502
lthumb 5.67265 35.7908
rfemur -43.5747 -2.32361 28.5329
rtibia 55.7411
rfoot -23.1076 -9.24433
rtoes 1.88061
lfemur -42.3223 17.119 -21.7475
ltibia 52.3405
lfoot -22.2327 0.283653
ltoes -2.154
154
root 4.2756 15.6649 -17.767 16.0274 -33.9182 -6.23066
lowerback 16.1201 -1.1206 2.90721
upperback 5.56184 -1.04448 2.08472
thorax -3.12493 -0.563502 0.742663
lowerneck 21.843 -1.51192 -0.427374
upperneck -18.2753 -1.11429 4.92424
head -9.33118 -1.0812 1.94175
rclavicle 1.51076e-014 -2.6339e-014
rhumerus -36.1415 3.54794 -86.5634
rradius 52.1571
rwrist -5.53833
rhand -20.1313 -4.5717
rfingers 7.12502
rthumb 6.21307 -34.4606
lclavicle 1.51076e-014 -2.6339e-014
lhumerus -40.0165 -14.3629 88.5499
lradius 56.8825
lwrist 30.4881
lhand -20.6493 5.90286
lfingers 7.12502
lthumb 5.71291 35.8058
rfemur -43.69 -2.3097 28.5636
rtibia 55.7829
rfoot -23.0816 -9.24371
rtoes 1.81225
lfemur -42.4509 17.0786 -21.7434
ltibia 52.4124
lfoot -22.2652 0.355247
ltoes -2.14866
155
root 4.27935 15.6626 -17.7666 16.1193 -33.9276 -6.26654
lowerback 16.1755 -1.12753 2.93985
upperback 5.53922 -1.04494 2.0865
thorax -3.17867 -0.563997 0.727729
lowerneck 21.8384 -1.51815 -0.420863
upperneck -18.295 -1.12319 4.91166
head -9.33706 -1.08456 1.93786
rclavicle 6.52014e-014 -1.92821e-014
rhumerus -36.2089 3.54507 -86.6074
rradius 52.0366
rwrist -5.57848
rhand -20.0971 -4.56577
rfingers 7.12502
rthumb 6.24605 -34.4537
lclavicle 6.52014e-014 -1.92821e-014
lhumerus -40.1039 -14.315 88.6017
lradius 56.859
lwrist 30.4857
lhand -20.6194 5.92324
lfingers 7.12502
lthumb 5.74185 35.8254
rfemur -43.8072 -2.3019 28.5884
rtibia 55.8235
rfoot -23.0567 -9.23099
rtoes 1.76469
lfemur -42.5793 17.0431 -21.7444
ltibia 52.4818
lfoot -22.2937 0.405717
ltoes -2.11273
156
root 4.28294 15.6603 -17.7665 16.207 -33.9426 -6.29514
lowerback 16.2337 -1.1334 2.9599
upperback 5.51313 -1.04561 2.08705
thorax -3.23742 -0.564689 0.718754
lowerneck 21.8356 -1.52278 -0.420475
upperneck -18.3174 -1.13093 4.9027
head -9.34417 -1.08741 1.93617
rclavicle 5.60573e-014 -1.14301e-014
rhumerus -36.2835 3.55841 -86.6557
rradius 51.9354
rwrist -5.6336
rhand -20.0319 -4.55846
rfingers 7.12502
rthumb 6.309 -34.4445
lclavicle 5.60573e-014 -1.14301e-014
lhumerus -40.1937 -14.2616 88.6514
lradius 56.8447
lwrist 30.4836
lhand -20.61 5.95322
lfingers 7.12502
lthumb 5.75087 35.8552
rfemur -43.9239 -2.29808 28.6077
rtibia 55.8634
rfoot -23.0322 -9.20524
rtoes 1.742
lfemur -42.7077 17.0199 -21.7511
ltibia 52.5508
lfoot -22.3157 0.443573
ltoes -2.10162
157
root 4.28635 15.658 -17.7667 16.2937 -33.9616 -6.32479
lowerback 16.2972 -1.13768 2.97349
upperback 5.484 -1.04482 2.08673
thorax -3.30214 -0.564732 0.712399
lowerneck 21.8348 -1.52949 -0.416024
upperneck -18.342 -1.14025 4.89323
head -9.3524 -1.09129 1.93393
rclavicle -1.44715e-013 1.37161e-014
rhumerus -36.3614 3.58314 -86.7098
rradius 51.8518
rwrist -5.70196
rhand -19.936 -4.55419
rfingers 7.12502
rthumb 6.40163 -34.4374
lclavicle -1.44715e-013 1.37161e-014
lhumerus -40.2883 -14.2125 88.6973
lradius 56.8419
lwrist 30.4895
lhand -20.6079 5.97925
lfingers 7.12502
lthumb 5.75296 35.8812
rfemur -44.0368 -2.29727 28.6295
rtibia 55.901
rfoot -23.0081 -9.16964
rtoes 1.72829
lfemur -42.8379 17.0122 -21.7553
ltibia 52.6233
lfoot -22.3314 0.464761
ltoes -2.09639
158
root 4.2895 15.6553 -17.7673 16.3826 -33.9814 -6.36449
lowerback 16.3656 -1.14027 2.98702
upperback 5.45433 -1.0415 2.08863
thorax -3.37001 -0.563596 0.708063
lowerneck 21.8343 -1.53591 -0.413676
upperneck -18.3693 -1.14816 4.89103
head -9.36163 -1.09525 1.93443
rclavicle -3.16068e-014 3.18055e-015
rhumerus -36.437 3.61073 -86.7665
rradius 51.7826
rwrist -5.77469
rhand -19.8002 -4.55286
rfingers 7.12502
rthumb 6.53274 -34.4321
lclavicle -3.16068e-014 3.18055e-015
lhumerus -40.3882 -14.1781 88.7466
lradius 56.8578
lwrist 30.5235
lhand -20.6365 6.01329
lfingers 7.12502
lthumb 5.72529 35.9159
rfemur -44.143 -2.29907 28.6622
rtibia 55.9349
rfoot -22.9839 -9.12537
rtoes 1.71845
lfemur -42.9708 17.0228 -21.7512
ltibia 52.7018
lfoot -22.3435 0.489255
ltoes -2.1738
159
root 4.29245 15.6524 -17.7682 16.4758 -34.0004 -6.41926
lowerback 16.4397 -1.14201 3.00492
upperback 5.42537 -1.03601 2.09412
thorax -3.44009 -0.561466 0.704733
lowerneck 21.8294 -1.54136 -0.414669
upperneck -18.3965 -1.1538 4.89796
head -9.37005 -1.09898 1.93829
rclavicle 2.75317e-014 -2.84262e-014
rhumerus -36.5065 3.63872 -86.8215
rradius 51.7262
rwrist -5.84641
rhand -19.627 -4.55094
rfingers 7.12502
rthumb 6.69988 -34.4249
lclavicle 2.75317e-014 -2.84262e-014
lhumerus -40.4912 -14.1554 88.7997
lradius 56.8911
lwrist 30.5849
lhand -20.676 6.04984
lfingers 7.12502
lthumb 5.68719 35.9535
rfemur -44.2395 -2.30337 28.7105
rtibia 55.9633
rfoot -22.9612 -9.0746
rtoes 1.7127
lfemur -43.1049 17.044 -21.7316
ltibia 52.7882
lfoot -22.3577 0.511328
ltoes -2.26586
160
root 4.29522 15.6493 -17.7694 16.5739 -34.0171 -6.49032
lowerback 16.5172 -1.14559 3.02576
upperback 5.39797 -1.03211 2.10635
thorax -3.51027 -0.560203 0.707215
lowerneck 21.8183 -1.54162 -0.421109
upperneck -18.4217 -1.15324 4.90909
head -9.37682 -1.09985 1.94349
rclavicle -8.94531e-015 8.74653e-015
rhumerus -36.5691 3.67486 -86.8717
rradius 51.6806
rwrist -5.90945
rhand -19.4347 -4.54849
rfingers 7.12502
rthumb 6.88555 -34.4165
lclavicle -8.94531e-015 8.74653e-015
lhumerus -40.5991 -14.1391 88.8606
lradius 56.9439
lwrist 30.6754
lhand -20.72 6.09127
lfingers 7.12502
lthumb 5.64468 35.9961
rfemur -44.3261 -2.31369 28.7758
rtibia 55.9862
rfoot -22.9368 -9.01618
rtoes 1.69924
lfemur -43.2373 17.0669 -21.6958
ltibia 52.881
lfoot -22.3806 0.544204
ltoes -2.37816
161
root 4.29784 15.646 -17.7709 16.6821 -34.03 -6.5778
lowerback 16.5942 -1.15151 3.05029
upperback 5.37014 -1.03037 2.12522
thorax -3.58056 -0.560066 0.715032
lowerneck 21.8029 -1.53714 -0.429656
upperneck -18.444 -1.14657 4.92189
head -9.38196 -1.09785 1.94864
rclavicle -2.41523e-014 -2.62396e-014
rhumerus -36.6266 3.71554 -86.9141
rradius 51.6445
rwrist -5.95376
rhand -19.2267 -4.54013
rfingers 7.12502
rthumb 7.08631 -34.4015
lclavicle -2.41523e-014 -2.62396e-014
lhumerus -40.7132 -14.1279 88.9271
lradius 57.0141
lwrist 30.7912
lhand -20.7586 6.13365
lfingers 7.12502
lthumb 5.6074 36.0395
rfemur -44.411 -2.32903 28.8586
rtibia 56.0049
rfoot -22.9132 -8.95063
rtoes 1.68813
lfemur -43.3741 17.089 -21.6447
ltibia 52.9785
lfoot -22.4123 0.577948
ltoes -2.45291
162
root 4.30048 15.6426 -17.7725 16.7949 -34.0412 -6.67033
lowerback 16.6684 -1.1582 3.07752
upperback 5.3421 -1.02924 2.14377
thorax -3.64968 -0.560222 0.721078
lowerneck 21.7843 -1.53022 -0.435425
upperneck -18.4632 -1.135 4.93797
head -9.38568 -1.09411 1.95369
rclavicle -8.44835e-014 2.04748e-014
rhumerus -36.6787 3.74626 -86.9501
rradius 51.6144
rwrist -5.97148
rhand -19.0191 -4.52803
rfingers 7.12502
rthumb 7.28673 -34.3826
lclavicle -8.44835e-014 2.04748e-014
lhumerus -40.8351 -14.1384 88.9988
lradius 57.1063
lwrist 30.9379
lhand -20.7939 6.19268
lfingers 7.12502
lthumb 5.57333 36.0994
rfemur -44.4978 -2.35237 28.9485
rtibia 56.0225
rfoot -22.8873 -8.87611
rtoes 1.68105
lfemur -43.5119 17.1001 -21.5881
ltibia 53.0764
lfoot -22.4535 0.616647
ltoes -2.47443
163
root 4.3032 15.6394 -17.7742 16.9103 -34.0488 -6.76119
lowerback 16.7381 -1.16758 3.10425
upperback 5.31349 -1.03185 2.16077
thorax -3.71706 -0.562183 0.726421
lowerneck 21.7654 -1.52132 -0.434167
upperneck -18.482 -1.11892 4.95199
head -9.3894 -1.08852 1.95622
rclavicle 2.55438e-014 2.50469e-014
rhumerus -36.7246 3.77027 -86.98
rradius 51.5876
rwrist -5.96424
rhand -18.8241 -4.51128
rfingers 7.12502
rthumb 7.47495 -34.3592
lclavicle 2.55438e-014 2.50469e-014
lhumerus -40.9633 -14.165 89.0728
lradius 57.2152
lwrist 31.105
lhand -20.824 6.2544
lfingers 7.12502
lthumb 5.54428 36.1619
rfemur -44.5919 -2.38793 29.0399
rtibia 56.0421
rfoot -22.8604 -8.78985
rtoes 1.6916
lfemur -43.6511 17.0949 -21.5316
ltibia 53.1717
lfoot -22.5013 0.656223
ltoes -2.42708
164
root 4.30605 15.6362 -17.776 17.0246 -34.058 -6.84277
lowerback 16.8024 -1.1747 3.12936
upperback 5.28536 -1.03228 2.17016
thorax -3.78117 -0.562987 0.724112
lowerneck 21.7481 -1.51511 -0.422355
upperneck -18.505 -1.10208 4.97
head -9.39502 -1.08392 1.95842
rclavicle 1.99779e-014 -1.8487e-014
rhumerus -36.7639 3.76864 -87.0058
rradius 51.5621
rwrist -5.9351
rhand -18.6443 -4.49226
rfingers 7.12502
rthumb 7.64853 -34.334
lclavicle 1.99779e-014 -1.8487e-014
lhumerus -41.0923 -14.2237 89.1448
lradius 57.3353
lwrist 31.2788
lhand -20.8461 6.30985
lfingers 7.12502
lthumb 5.52291 36.2179
rfemur -44.6959 -2.43178 29.1254
rtibia 56.066
rfoot -22.8298 -8.70054
rtoes 1.70068
lfemur -43.7911 17.0764 -21.4837
ltibia 53.2619
lfoot -22.5508 0.70366
ltoes -2.3547
